<svg id="Layer_1" data-name="Layer 1" xmlns="http://www.w3.org/2000/svg" viewBox="0 0 437.71 512"><defs><style>.cls-1{fill:#1a4e6c;}</style></defs><title>explore</title><path class="cls-1" d="M256,132.89c-88.36,0-160.25,71.89-160.25,160.26S167.64,453.4,256,453.4s160.25-71.89,160.25-160.25S344.36,132.89,256,132.89Zm10.38,299.36V418.88a10.38,10.38,0,0,0-20.76,0v13.37A139.72,139.72,0,0,1,116.89,303.53h13.38a10.38,10.38,0,0,0,0-20.76H116.89A139.72,139.72,0,0,1,245.62,154v13.37a10.38,10.38,0,0,0,20.76,0V154A139.7,139.7,0,0,1,395.1,282.77H381.73a10.38,10.38,0,0,0,0,20.76h13.38A139.72,139.72,0,0,1,266.38,432.25Z" transform="translate(-37.15 0)"/><path class="cls-1" d="M266.38,74.54V61.06h16.67a10.38,10.38,0,0,0,10.38-10.38V10.38A10.38,10.38,0,0,0,283.05,0H228.94a10.38,10.38,0,0,0-10.38,10.38v40.3a10.38,10.38,0,0,0,10.38,10.38h16.68V74.54C129.74,80,37.15,176,37.15,293.14,37.15,413.82,135.32,512,256,512s218.85-98.18,218.85-218.85C474.86,176,382.25,80,266.38,74.54ZM239.32,40.3V20.76h33.35V40.3ZM256,490.15c-108.63,0-197-88.38-197-197s88.37-197,197-197,197,88.38,197,197S364.63,490.15,256,490.15Z" transform="translate(-37.15 0)"/><path class="cls-1" d="M332.41,216.74a10.39,10.39,0,0,0-11.64-2.11l-95,43.16-.23.12-.47.24-.41.25a3.54,3.54,0,0,0-.41.26c-.16.11-.32.22-.47.34l-.31.24a11,11,0,0,0-1.41,1.4l-.24.32c-.11.15-.23.3-.34.46s-.18.28-.26.42-.17.27-.24.4-.17.32-.25.48-.08.15-.11.23l-43.17,95a10.38,10.38,0,0,0,13.75,13.74l95-43.16.23-.12.47-.24.41-.24c.14-.09.28-.17.41-.27a5.09,5.09,0,0,0,.47-.34c.1-.08.21-.15.31-.24a10.29,10.29,0,0,0,1.4-1.4c.09-.1.17-.22.25-.32s.23-.3.34-.46.18-.28.26-.42.17-.26.24-.4.17-.32.25-.48.08-.15.11-.23l43.17-95A10.37,10.37,0,0,0,332.41,216.74ZM207.83,341.31l25.52-56.13L264,315.79Zm70.82-40.19L248,270.5,304.17,245Z" transform="translate(-37.15 0)"/></svg>